HIERARCHY
ROOT Hips
{
	OFFSET 0.000000 0.000000 0.000000
	CHANNELS 6 Xposition Yposition Zposition Zrotation Yrotation Xrotation 
	JOINT LHipJoint
	{
		OFFSET 0.000000 0.000000 0.000000
		CHANNELS 3 Zrotation Yrotation Xrotation
		JOINT LeftUpLeg
		{
			OFFSET 1.363060 -1.794630 0.839290
			CHANNELS 3 Zrotation Yrotation Xrotation
			JOINT LeftLeg
			{
				OFFSET 2.448110 -6.726130 0.000000
				CHANNELS 3 Zrotation Yrotation Xrotation
				JOINT LeftFoot
				{
					OFFSET 2.562200 -7.039590 0.000000
					CHANNELS 3 Zrotation Yrotation Xrotation
					JOINT LeftToeBase
					{
						OFFSET 0.157640 -0.433110 2.322550
						CHANNELS 3 Zrotation Yrotation Xrotation
						End Site
						{
							OFFSET 0.000000 0.000000 0.000000
						}
					}
				}
			}
		}
	}
	JOINT RHipJoint
	{
		OFFSET 0.000000 0.000000 0.000000
		CHANNELS 3 Zrotation Yrotation Xrotation
		JOINT RightUpLeg
		{
			OFFSET -1.305520 -1.794630 0.839290
			CHANNELS 3 Zrotation Yrotation Xrotation
			JOINT RightLeg
			{
				OFFSET -2.542530 -6.985550 0.000000
				CHANNELS 3 Zrotation Yrotation Xrotation
				JOINT RightFoot
				{
					OFFSET -2.568260 -7.056230 0.000000
					CHANNELS 3 Zrotation Yrotation Xrotation
					JOINT RightToeBase
					{
						OFFSET -0.164730 -0.452590 2.363150
						CHANNELS 3 Zrotation Yrotation Xrotation
						End Site
						{
							OFFSET 0.000000 0.000000 0.000000
						}
					}
				}
			}
		}
	}
	JOINT LowerBack
	{
		OFFSET 0.000000 0.000000 0.000000
		CHANNELS 3 Zrotation Yrotation Xrotation
		JOINT Spine
		{
			OFFSET 0.028270 2.035590 -0.193380
			CHANNELS 3 Zrotation Yrotation Xrotation
			JOINT Spine1
			{
				OFFSET 0.056720 2.048850 -0.042750
				CHANNELS 3 Zrotation Yrotation Xrotation
				JOINT Neck
				{
					OFFSET 0.000000 0.000000 0.000000
					CHANNELS 3 Zrotation Yrotation Xrotation
					JOINT Neck1
					{
						OFFSET -0.054170 1.746240 0.172020
						CHANNELS 3 Zrotation Yrotation Xrotation
						JOINT Head
						{
							OFFSET 0.104070 1.761360 -0.123970
							CHANNELS 3 Zrotation Yrotation Xrotation
							End Site
							{
								OFFSET 0.000000 0.000000 0.000000
							}
						}
					}
				}
				JOINT LeftShoulder
				{
					OFFSET 0.000000 0.000000 0.000000
					CHANNELS 3 Zrotation Yrotation Xrotation
					JOINT LeftArm
					{
						OFFSET 3.362410 1.200890 -0.311210
						CHANNELS 3 Zrotation Yrotation Xrotation
						JOINT LeftForeArm
						{
							OFFSET 4.983000 -0.000000 -0.000000
							CHANNELS 3 Zrotation Yrotation Xrotation
							JOINT LeftHand
							{
								OFFSET 3.483560 -0.000000 -0.000000
								CHANNELS 3 Zrotation Yrotation Xrotation
								JOINT LeftFingerBase
								{
									OFFSET 0.000000 0.000000 0.000000
									CHANNELS 3 Zrotation Yrotation Xrotation
									JOINT LeftHandIndex1
									{
										OFFSET 0.715260 -0.000000 -0.000000
										CHANNELS 3 Zrotation Yrotation Xrotation
										End Site
										{
											OFFSET 0.000000 0.000000 0.000000
										}
									}
								}
								JOINT LThumb
								{
									OFFSET 0.000000 0.000000 0.000000
									CHANNELS 3 Zrotation Yrotation Xrotation
									End Site
									{
										OFFSET 0.000000 0.000000 0.000000
									}
								}
							}
						}
					}
				}
				JOINT RightShoulder
				{
					OFFSET 0.000000 0.000000 0.000000
					CHANNELS 3 Zrotation Yrotation Xrotation
					JOINT RightArm
					{
						OFFSET -3.136600 1.374050 -0.404650
						CHANNELS 3 Zrotation Yrotation Xrotation
						JOINT RightForeArm
						{
							OFFSET -5.241900 -0.000000 -0.000000
							CHANNELS 3 Zrotation Yrotation Xrotation
							JOINT RightHand
							{
								OFFSET -3.444170 -0.000000 -0.000000
								CHANNELS 3 Zrotation Yrotation Xrotation
								JOINT RightFingerBase
								{
									OFFSET 0.000000 0.000000 0.000000
									CHANNELS 3 Zrotation Yrotation Xrotation
									JOINT RightHandIndex1
									{
										OFFSET -0.622530 -0.000000 -0.000000
										CHANNELS 3 Zrotation Yrotation Xrotation
										End Site
										{
											OFFSET 0.000000 0.000000 0.000000
										}
									}
								}
								JOINT RThumb
								{
									OFFSET 0.000000 0.000000 0.000000
									CHANNELS 3 Zrotation Yrotation Xrotation
									End Site
									{
										OFFSET 0.000000 0.000000 0.000000
									}
								}
							}
						}
					}
				}
			}
		}
	}
}
MOTION
Frames: 10
Frame Time: 0.008333
11.558202 18.014003 2.489497 2.577221 7.361051 0.326673 0.924060 4.534205 3.869578 -28.672435 -17.287504 13.798191 -3.903427 2.976050 12.091012 -3.732100 13.472601 -5.888688 0.399000 -4.055300 -11.232400 -4.575421 -2.249029 -0.579074 14.613847 25.851770 -18.005769 3.337000 -8.045342 19.177273 8.622957 -32.668273 -24.302979 -0.161300 -2.587800 7.133200 -2.244496 -1.838061 4.932404 2.954221 -2.577551 4.515189 -1.043489 -1.191139 -12.767995 -7.954573 -3.048294 -16.850555 12.460808 -4.103977 9.748515 1.888300 -1.654900 3.939300 -1.685096 -11.059815 1.599502 -89.663241 -5.607418 24.872363 31.364990 -31.824097 -9.992013 0.888216 0.781435 3.185434 11.219797 -33.475061 -5.919100 -7.125000 0.000000 0.000000 -12.222900 -4.194600 13.383100 0.341257 10.500057 2.729039 87.988245 -12.275281 19.345387 -19.706036 22.122992 -5.115410 1.087976 -0.223689 16.823233 1.824334 -52.501122 -0.562500 7.125000 0.000000 0.000000 72.073900 -70.985500 -52.081600 
11.538023 17.998140 2.654429 2.938216 7.773268 0.725397 0.936878 4.544812 3.891609 -28.778378 -16.826546 14.163735 -3.940971 2.730920 11.505428 -3.741599 13.475189 -5.081991 0.769600 -5.601900 -15.633500 -4.568319 -2.201692 -0.599196 13.263314 28.770275 -17.514515 3.539565 -7.641838 18.070841 8.695873 -33.752912 -27.397060 -0.310100 -3.580100 9.898300 -2.508855 -1.919546 4.792748 2.678204 -2.706183 4.149324 -0.866756 -1.242797 -12.675007 -8.110349 -3.160987 -16.924230 12.508578 -4.233582 9.992767 1.920600 -1.704200 4.027900 -1.669275 -11.064610 1.622188 -89.858935 -5.320176 25.222040 31.980191 -32.420698 -10.391843 0.853706 0.763611 2.879528 11.274219 -33.393574 -5.950500 -7.125000 0.000000 0.000000 -12.168600 -4.099900 13.302100 0.386574 10.488665 2.758532 87.950615 -12.554365 19.554904 -19.688876 22.091997 -5.118384 1.088058 -0.225534 16.935697 2.195770 -52.634522 -0.859000 7.125000 0.000000 0.000000 72.674100 -70.901000 -52.533800 
11.525892 17.982160 2.838957 3.178425 7.864768 0.869355 0.953016 4.599624 3.955461 -28.888224 -16.314882 14.782975 -3.968297 2.502168 11.014562 -3.677153 13.291653 -4.692906 0.887400 -6.004800 -16.798400 -4.593326 -2.194564 -0.627415 12.307265 31.630255 -16.796946 3.673959 -7.309622 17.276476 8.537776 -34.337615 -30.138689 -0.497000 -4.520000 12.544300 -2.354319 -1.893585 4.760944 2.038697 -2.654560 3.715438 -0.913065 -1.241705 -12.664029 -7.911315 -3.271036 -16.777746 12.463426 -4.412681 10.380618 1.876200 -1.764400 4.118900 -1.623257 -11.040593 1.651450 -89.851996 -4.853879 25.829974 32.424640 -32.838593 -10.690417 0.831746 0.746076 2.293689 10.891416 -33.159902 -5.697800 -7.125000 0.000000 0.000000 -12.348900 -3.785100 13.444800 0.460846 10.478562 2.787032 88.223721 -12.992381 19.491177 -19.693687 22.086430 -5.121704 1.086203 -0.220679 17.307181 3.222774 -52.631476 -1.681200 7.125000 0.000000 0.000000 73.335600 -70.554200 -52.724100 
11.502330 17.968979 3.005172 3.357847 8.289791 1.232430 0.943571 4.614858 3.953133 -28.814010 -16.291114 15.077592 -3.971884 2.415104 10.827075 -3.551427 12.899587 -4.277039 0.834900 -5.829000 -16.289200 -4.569236 -2.156594 -0.662494 11.151539 34.567643 -16.269502 3.797456 -6.997594 16.516925 8.182687 -34.785977 -33.303878 -0.795100 -5.691700 15.892400 -2.409558 -1.952616 4.817417 1.741855 -2.734945 3.145955 -0.836156 -1.287620 -12.695587 -7.823482 -3.388365 -16.875278 12.343108 -4.554697 10.851334 1.829200 -1.805600 4.262100 -1.621058 -11.007765 1.687361 -89.984489 -4.424180 26.279841 32.849135 -33.240288 -10.991451 0.808074 0.738495 1.909572 10.812438 -33.388235 -5.693600 -7.125000 0.000000 0.000000 -12.399300 -3.983100 13.542500 0.512234 10.488046 2.826044 88.373055 -13.235791 19.307818 -19.631929 21.998621 -5.084884 1.090560 -0.222023 17.655554 3.628185 -52.291413 -1.992900 7.125000 0.000000 0.000000 72.699200 -70.315200 -51.839500 
11.475736 17.950316 3.177803 3.408478 8.539440 1.411300 0.968054 4.650102 3.994998 -28.633165 -16.064470 15.329324 -3.951660 2.392869 10.831576 -3.487600 12.683047 -3.931689 0.808500 -5.738300 -16.027000 -4.514504 -2.164314 -0.658925 10.356348 37.523121 -15.541190 3.884315 -6.714173 15.911453 7.778236 -35.294899 -36.302643 -1.060400 -6.547100 18.380400 -2.563733 -1.974537 4.677995 1.732527 -2.773252 3.055308 -0.756771 -1.303430 -12.619633 -7.798229 -3.460989 -16.992481 12.261983 -4.630815 11.048619 1.801800 -1.832000 4.337300 -1.627513 -11.000161 1.691452 -90.156640 -4.258530 26.516333 33.146454 -33.521898 -11.207948 0.784047 0.742651 1.738212 11.188061 -33.854091 -5.993000 -7.125000 0.000000 0.000000 -12.222400 -4.498900 13.442800 0.515730 10.500268 2.836097 88.416585 -13.324325 19.289176 -19.571134 21.921652 -5.063409 1.093117 -0.223285 17.812846 3.944160 -52.255066 -2.241100 7.125000 0.000000 0.000000 72.811400 -70.199300 -51.800300 
11.445642 17.934336 3.356849 3.223921 8.727080 1.365624 1.009241 4.717394 4.081293 -28.229376 -15.769245 15.524002 -3.891659 2.512373 11.218819 -3.480082 12.622634 -3.822263 0.901100 -6.049700 -16.928500 -4.420353 -2.232013 -0.628138 10.166409 40.072273 -14.501808 3.973130 -6.380162 15.325951 7.124224 -35.317776 -39.053887 -1.381900 -7.438400 21.020900 -2.578609 -2.009334 4.449176 1.859216 -2.813523 3.307526 -0.772497 -1.330062 -12.504177 -7.687573 -3.531643 -17.119530 12.165583 -4.710919 11.168859 1.756300 -1.863200 4.394600 -1.623815 -10.991630 1.675920 -90.240649 -4.118408 26.719720 33.508764 -33.856193 -11.457366 0.763105 0.738306 1.355635 11.257793 -34.021124 -6.066200 -7.125000 0.000000 0.000000 -12.189900 -4.663900 13.437900 0.487901 10.520078 2.821562 88.435065 -13.224127 19.379074 -19.467090 21.802864 -5.037644 1.093978 -0.220236 17.873343 4.554226 -52.456510 -2.733800 7.125000 0.000000 0.000000 73.739200 -70.059600 -52.488800 
11.428029 17.925821 3.523414 3.462228 9.146919 1.603668 1.010759 4.732500 4.101690 -28.203305 -15.597430 15.676662 -3.841812 2.573979 11.434033 -3.309028 12.094506 -3.478836 0.888300 -6.007600 -16.806500 -4.395484 -2.249138 -0.646064 9.626437 40.975496 -14.138769 4.007963 -6.200946 14.982353 6.763842 -35.017211 -40.060664 -1.566100 -7.896800 22.401000 -2.614036 -2.105799 4.420810 1.598055 -2.947824 3.069338 -0.716039 -1.393339 -12.482762 -7.802928 -3.676140 -17.388796 12.189636 -4.864606 11.673551 1.774500 -1.905400 4.582200 -1.606375 -10.974395 1.693940 -90.369131 -3.831316 27.009269 33.814154 -34.130890 -11.676063 0.746907 0.731136 0.940625 11.122282 -34.086516 -6.000400 -7.125000 0.000000 0.000000 -12.261900 -4.693900 13.526900 0.524893 10.535439 2.843754 88.328403 -13.220611 19.421685 -19.365299 21.667361 -4.995209 1.099956 -0.220269 17.849608 4.617249 -52.307842 -2.774100 7.125000 0.000000 0.000000 73.393200 -69.994700 -52.086000 
11.391053 17.917890 3.713074 2.977062 9.314196 1.583265 1.105921 4.829730 4.165868 -27.448875 -15.376336 15.871137 -3.790190 2.616043 11.632725 -3.105788 11.421306 -2.944632 0.928200 -6.137400 -17.183500 -4.358673 -2.337661 -0.682891 10.356669 41.793055 -13.470748 4.031524 -6.075350 14.796422 6.676613 -35.115543 -40.403300 -1.637700 -8.066800 22.917300 -2.487912 -2.071807 4.457021 2.036478 -2.872443 2.696832 -0.847009 -1.388617 -12.528035 -8.088756 -3.732181 -17.095229 12.404291 -4.949993 11.957253 1.871400 -1.926800 4.629600 -1.659525 -10.949107 1.699477 -90.544678 -3.353365 27.167256 33.820528 -34.136148 -11.701907 0.746910 0.732803 0.886116 11.013847 -34.284891 -5.965800 -7.125000 0.000000 0.000000 -12.338200 -4.871700 13.650300 0.505342 10.525164 2.875065 88.379529 -13.595926 19.310728 -19.389647 21.686375 -5.004002 1.099213 -0.220315 17.921766 4.979950 -52.295982 -3.063100 7.125000 0.000000 0.000000 73.597400 -69.870100 -52.120700 
11.371108 17.908908 3.893870 3.147966 9.503423 1.720305 1.165504 4.867850 4.197732 -27.386031 -14.912928 16.121126 -3.734830 2.610501 11.719084 -2.867789 10.675547 -2.224918 1.206900 -6.969800 -19.625800 -4.450683 -2.387597 -0.718679 10.731912 40.511397 -13.508093 3.995287 -6.124056 14.851042 7.410873 -35.481862 -38.183453 -1.341500 -7.333200 20.706300 -2.504241 -2.037954 4.442126 1.728161 -2.837519 2.313552 -0.825055 -1.368799 -12.500619 -7.993485 -3.687914 -16.540023 12.295762 -4.941818 11.787479 1.829000 -1.942600 4.502200 -1.651454 -10.950570 1.709668 -90.730650 -2.917788 27.243039 33.818297 -34.133582 -11.719393 0.751155 0.733249 0.895739 10.826228 -34.448906 -5.876700 -7.125000 0.000000 0.000000 -12.455700 -5.003000 13.812600 0.551735 10.499459 2.895802 88.468660 -13.900711 19.103713 -19.461531 21.767920 -5.038070 1.093707 -0.219417 18.121595 5.558406 -52.482846 -3.537600 7.125000 0.000000 0.000000 74.455800 -69.734300 -52.752400 
11.346496 17.905992 4.078631 3.070441 9.711019 1.732184 1.268672 4.942009 4.268110 -27.064672 -14.478567 16.401643 -3.686823 2.593327 11.781277 -2.723861 10.194293 -1.491191 1.287500 -7.190100 -20.279700 -4.509196 -2.460133 -0.714107 11.553167 38.720807 -13.555785 3.955357 -6.212397 15.049668 7.864574 -35.165768 -35.584779 -1.158000 -6.831900 19.218300 -2.562870 -2.006881 4.194510 1.871862 -2.794265 2.402115 -0.824813 -1.353276 -12.367349 -7.903238 -3.754848 -16.491747 12.026564 -5.006565 11.819325 1.736500 -1.984000 4.507600 -1.669249 -10.945696 1.696273 -90.899770 -2.593410 27.528389 33.973139 -34.264819 -11.841764 0.746967 0.729743 0.644332 10.598011 -34.553197 -5.756000 -7.125000 0.000000 0.000000 -12.586200 -5.062500 13.976300 0.531082 10.513182 2.889902 88.373600 -13.854454 19.026741 -19.381799 21.655862 -4.999102 1.101558 -0.228980 18.084103 4.686708 -52.283800 -2.825200 7.125000 0.000000 0.000000 73.365800 -69.964500 -52.023000 
